<?xml version="1.0" standalone="no"?>
<!DOCTYPE svg PUBLIC "-//W3C//DTD SVG 20010904//EN"
 "http://www.w3.org/TR/2001/REC-SVG-20010904/DTD/svg10.dtd">
<svg version="1.0" xmlns="http://www.w3.org/2000/svg"
 width="680.428175pt" height="799.912384pt" viewBox="0 0 680.428175 799.912384"
 preserveAspectRatio="xMidYMid meet">
<metadata>
Created by potrace 1.12, written by Peter Selinger 2001-2015
</metadata>
<g transform="translate(-54.206900,799.912384) scale(0.100000,-0.100000)"
fill="#000000" stroke="none">
<path d="M3509 7989 c-553 -46 -1131 -277 -1619 -649 -745 -567 -1189 -1301
-1326 -2190 -21 -137 -29 -441 -15 -589 70 -751 492 -1440 1121 -1826 282
-173 610 -283 1040 -347 109 -16 633 -16 672 0 20 8 30 22 38 54 7 24 56 200
111 392 54 193 96 352 94 354 -2 3 -51 -5 -107 -17 -153 -32 -292 -41 -467
-31 -170 10 -181 12 -336 46 -456 99 -800 328 -1042 694 -292 441 -368 945
-227 1505 143 568 449 1030 910 1375 233 175 477 303 719 378 518 161 1086
105 1524 -151 45 -27 87 -45 91 -40 4 4 42 132 85 283 42 151 92 328 111 393
19 66 34 122 34 126 0 18 -226 108 -375 148 -316 87 -693 121 -1036 92z"/>
<path d="M5365 5738 c-7 -20 -1635 -5729 -1635 -5734 0 -2 767 -4 1704 -4
l1703 0 102 357 c56 197 104 366 107 376 5 16 -61 17 -1285 17 -813 0 -1291 4
-1291 10 0 7 1387 4876 1416 4973 5 16 -19 17 -406 17 -319 0 -412 -3 -415
-12z"/>
</g>
</svg>
